# xmcd
#
# Track frame offsets: 
#        150
#        17162
#        42980
#        60152
#        76472
#        100145
#        121182
#        139105
#        158852
#        173085
#
# Disc length: 2610 seconds
#
# Revision: 0
# Processed by: cddbd v1.5.2PL0 Copyright (c) Steve Scherf et al.
# Submitted via: ExactAudioCopy v0.99pb4
#
DISCID=750a300a
DTITLE=Great Northern - Trading Twilight For Daylight
DYEAR=2007
DGENRE=Indie
TTITLE0=Our Bleeding Hearts
TTITLE1=Just A Dream
TTITLE2=Home
TTITLE3=Telling Lies
TTITLE4=Low Is A Height
TTITLE5=City Of Sleep
TTITLE6=A Sun A Sound
TTITLE7=Into The Sun
TTITLE8=The Middle
TTITLE9=Babies
EXTD=
EXTT0=
EXTT1=
EXTT2=
EXTT3=
EXTT4=
EXTT5=
EXTT6=
EXTT7=
EXTT8=
EXTT9=
PLAYORDER=
